{
  "accessors": [
    {
      "bufferView": 2,
      "componentType": 5126,
      "count": 65532,
      "max": [
        4.4805684089660645,
        4.925167083740234,
        4.667144298553467
      ],
      "min": [
        -3.9842727184295654,
        -4.76427698135376,
        -4.938914775848389
      ],
      "type": "VEC3"
    },
    {
      "bufferView": 2,
      "byteOffset": 786384,
      "componentType": 5126,
      "count": 65532,
      "max": [
        0.9999164938926697,
        0.999613881111145,
        0.9998798966407776
      ],
      "min": [
        -0.9999238848686218,
        -0.999959409236908,
        -0.9999946355819702
      ],
      "type": "VEC3"
    },
    {
      "bufferView": 1,
      "componentType": 5126,
      "count": 65532,
      "max": [
        0.9996370077133179,
        0.9997360110282898
      ],
      "min": [
        0.00010399999882793054,
        0.00010901689529418945
      ],
      "type": "VEC2"
    },
    {
      "bufferView": 0,
      "componentType": 5125,
      "count": 188787,
      "type": "SCALAR"
    },
    {
      "bufferView": 2,
      "byteOffset": 1572768,
      "componentType": 5126,
      "count": 65532,
      "max": [
        4.485561370849609,
        5.0417585372924805,
        4.658306121826172
      ],
      "min": [
        -4.012986660003662,
        -4.75995397567749,
        -5.738403797149658
      ],
      "type": "VEC3"
    },
    {
      "bufferView": 2,
      "byteOffset": 2359152,
      "componentType": 5126,
      "count": 65532,
      "max": [
        0.999957263469696,
        0.9998085498809814,
        0.9999386072158813
      ],
      "min": [
        -0.9999730587005615,
        -0.9998816251754761,
        -0.9999946355819702
      ],
      "type": "VEC3"
    },
    {
      "bufferView": 1,
      "byteOffset": 524256,
      "componentType": 5126,
      "count": 65532,
      "max": [
        0.999754011631012,
        0.9997950196266174
      ],
      "min": [
        0.00011300000187475234,
        0.00010901689529418945
      ],
      "type": "VEC2"
    },
    {
      "bufferView": 0,
      "byteOffset": 755148,
      "componentType": 5125,
      "count": 250527,
      "type": "SCALAR"
    },
    {
      "bufferView": 2,
      "byteOffset": 3145536,
      "componentType": 5126,
      "count": 54814,
      "max": [
        4.519280433654785,
        5.031886100769043,
        4.65551233291626
      ],
      "min": [
        -4.012986660003662,
        -4.749032974243164,
        -5.738403797149658
      ],
      "type": "VEC3"
    },
    {
      "bufferView": 2,
      "byteOffset": 3803304,
      "componentType": 5126,
      "count": 54814,
      "max": [
        0.999957263469696,
        0.9999321699142456,
        0.9998798370361328
      ],
      "min": [
        -0.9999567866325378,
        -0.999671459197998,
        -0.999900221824646
      ],
      "type": "VEC3"
    },
    {
      "bufferView": 1,
      "byteOffset": 1048512,
      "componentType": 5126,
      "count": 54814,
      "max": [
        0.9997929930686951,
        0.9995009899139404
      ],
      "min": [
        0.00011200000153621659,
        0.00010901689529418945
      ],
      "type": "VEC2"
    },
    {
      "bufferView": 0,
      "byteOffset": 1757256,
      "componentType": 5125,
      "count": 150366,
      "type": "SCALAR"
    }
  ],
  "asset": {
    "extras": {
      "author": "Tavernier Amaury (https://sketchfab.com/svtavernier)",
      "license": "CC-BY-NC-SA-4.0 (http://creativecommons.org/licenses/by-nc-sa/4.0/)",
      "source": "https://sketchfab.com/3d-models/triceratops-2e8eacd4bf4943c7bddbd61abdd02f56",
      "title": "Triceratops"
    },
    "generator": "Sketchfab-16.28.0",
    "version": "2.0"
  },
  "bufferViews": [
    {
      "buffer": 0,
      "byteLength": 2358720,
      "name": "floatBufferViews",
      "target": 34963
    },
    {
      "buffer": 0,
      "byteLength": 1487024,
      "byteOffset": 2358720,
      "byteStride": 8,
      "name": "floatBufferViews",
      "target": 34962
    },
    {
      "buffer": 0,
      "byteLength": 4461072,
      "byteOffset": 3845744,
      "byteStride": 12,
      "name": "floatBufferViews",
      "target": 34962
    }
  ],
  "buffers": [
    {
      "byteLength": 8306816,
      "uri": "scene.bin"
    }
  ],
  "extensionsUsed": [
    "KHR_materials_specular"
  ],
  "images": [
    {
      "uri": "textures/tric_baseColor.jpeg"
    },
    {
      "uri": "textures/tric_specularf0.png"
    }
  ],
  "materials": [
    {
      "doubleSided": true,
      "extensions": {
        "KHR_materials_specular": {
          "specularColorFactor": [
            1.0,
            1.0,
            1.0
          ],
          "specularFactor": 1.0,
          "specularTexture": {
            "index": 1
          }
        }
      },
      "name": "tric",
      "pbrMetallicRoughness": {
        "baseColorTexture": {
          "index": 0
        },
        "metallicFactor": 0.0
      }
    }
  ],
  "meshes": [
    {
      "name": "Object_0",
      "primitives": [
        {
          "attributes": {
            "NORMAL": 1,
            "POSITION": 0,
            "TEXCOORD_0": 2
          },
          "indices": 3,
          "material": 0,
          "mode": 4
        }
      ]
    },
    {
      "name": "Object_1",
      "primitives": [
        {
          "attributes": {
            "NORMAL": 5,
            "POSITION": 4,
            "TEXCOORD_0": 6
          },
          "indices": 7,
          "material": 0,
          "mode": 4
        }
      ]
    },
    {
      "name": "Object_2",
      "primitives": [
        {
          "attributes": {
            "NORMAL": 9,
            "POSITION": 8,
            "TEXCOORD_0": 10
          },
          "indices": 11,
          "material": 0,
          "mode": 4
        }
      ]
    }
  ],
  "nodes": [
    {
      "children": [
        1
      ],
      "matrix": [
        1.0,
        0.0,
        0.0,
        0.0,
        0.0,
        2.220446049250313e-16,
        -1.0,
        0.0,
        0.0,
        1.0,
        2.220446049250313e-16,
        0.0,
        0.0,
        0.0,
        0.0,
        1.0
      ],
      "name": "Sketchfab_model"
    },
    {
      "children": [
        2
      ],
      "name": "root"
    },
    {
      "children": [
        3
      ],
      "matrix": [
        1.0,
        0.0,
        0.0,
        0.0,
        0.0,
        2.220446049250313e-16,
        1.0,
        0.0,
        0.0,
        -1.0,
        2.220446049250313e-16,
        0.0,
        0.0,
        0.0,
        0.0,
        1.0
      ],
      "name": "GLTF_SceneRootNode"
    },
    {
      "children": [
        4,
        5,
        6
      ],
      "matrix": [
        0.9968429834869101,
        0.07708850897642255,
        -0.019011261312909464,
        0.0,
        -0.0746239683532785,
        0.9914262666347826,
        0.10726239403363101,
        0.0,
        0.027116961852770245,
        -0.10550506912186282,
        0.9940489679937635,
        0.0,
        0.14521649479866028,
        4.476720809936523,
        0.4144299030303955,
        1.0
      ],
      "name": "tric_1"
    },
    {
      "mesh": 0,
      "name": "Object_4"
    },
    {
      "mesh": 1,
      "name": "Object_5"
    },
    {
      "mesh": 2,
      "name": "Object_6"
    }
  ],
  "samplers": [
    {
      "magFilter": 9729,
      "minFilter": 9987,
      "wrapS": 10497,
      "wrapT": 10497
    }
  ],
  "scene": 0,
  "scenes": [
    {
      "name": "Sketchfab_Scene",
      "nodes": [
        0
      ]
    }
  ],
  "textures": [
    {
      "sampler": 0,
      "source": 0
    },
    {
      "sampler": 0,
      "source": 1
    }
  ]
}
